<svg width="14" height="14" viewBox="0 0 14 14" fill="none" xmlns="http://www.w3.org/2000/svg">
<path d="M6.02324 11.7965C7.30416 11.7962 8.54817 11.3674 9.55718 10.5783L12.7296 13.7507L13.75 12.7303L10.5776 9.55791C11.3671 8.54879 11.7962 7.30449 11.7965 6.02324C11.7965 2.84002 9.20646 0.25 6.02324 0.25C2.84002 0.25 0.25 2.84002 0.25 6.02324C0.25 9.20646 2.84002 11.7965 6.02324 11.7965ZM6.02324 1.69331C8.4112 1.69331 10.3532 3.63528 10.3532 6.02324C10.3532 8.4112 8.4112 10.3532 6.02324 10.3532C3.63528 10.3532 1.69331 8.4112 1.69331 6.02324C1.69331 3.63528 3.63528 1.69331 6.02324 1.69331Z" fill="#343434"/>
</svg>
