<svg width="4" height="12" viewBox="0 0 4 12" fill="none" xmlns="http://www.w3.org/2000/svg">
<path d="M0.666626 6C0.666626 6.35362 0.807102 6.69276 1.05715 6.94281C1.3072 7.19286 1.64634 7.33333 1.99996 7.33333C2.35358 7.33333 2.69272 7.19286 2.94277 6.94281C3.19282 6.69276 3.33329 6.35362 3.33329 6C3.33329 5.64638 3.19282 5.30724 2.94277 5.05719C2.69272 4.80714 2.35358 4.66667 1.99996 4.66667C1.64634 4.66667 1.3072 4.80714 1.05715 5.05719C0.807102 5.30724 0.666626 5.64638 0.666626 6ZM0.666626 2C0.666626 2.35362 0.807102 2.69276 1.05715 2.94281C1.3072 3.19286 1.64634 3.33333 1.99996 3.33333C2.35358 3.33333 2.69272 3.19286 2.94277 2.94281C3.19282 2.69276 3.33329 2.35362 3.33329 2C3.33329 1.64638 3.19282 1.30724 2.94277 1.05719C2.69272 0.807144 2.35358 0.666668 1.99996 0.666668C1.64634 0.666668 1.3072 0.807144 1.05715 1.05719C0.807102 1.30724 0.666626 1.64638 0.666626 2ZM0.666626 10C0.666626 10.3536 0.807102 10.6928 1.05715 10.9428C1.3072 11.1929 1.64634 11.3333 1.99996 11.3333C2.35358 11.3333 2.69272 11.1929 2.94277 10.9428C3.19282 10.6928 3.33329 10.3536 3.33329 10C3.33329 9.64638 3.19282 9.30724 2.94277 9.05719C2.69272 8.80714 2.35358 8.66667 1.99996 8.66667C1.64634 8.66667 1.3072 8.80714 1.05715 9.05719C0.807102 9.30724 0.666626 9.64638 0.666626 10Z" fill="black"/>
</svg>
