<svg width="19" height="17" viewBox="0 0 19 17" fill="none" xmlns="http://www.w3.org/2000/svg">
<path d="M17.144 6.85903H3.58881L7.73766 1.87584C7.93166 1.64244 8.02499 1.34152 7.99713 1.0393C7.96926 0.73708 7.82248 0.458306 7.58908 0.264306C7.35567 0.070306 7.05476 -0.0230281 6.75254 0.00483632C6.45032 0.0327007 6.17154 0.179481 5.97754 0.412887L0.262875 7.27049C0.224427 7.32503 0.190046 7.38234 0.160011 7.44193C0.160011 7.49907 0.160011 7.53336 0.0800055 7.59051C0.0282003 7.72156 0.00107564 7.86105 0 8.00197C0.00107564 8.14288 0.0282003 8.28237 0.0800055 8.41342C0.0800055 8.47057 0.0800052 8.50486 0.160011 8.562C0.190046 8.6216 0.224427 8.6789 0.262875 8.73344L5.97754 15.591C6.085 15.7201 6.21957 15.8238 6.37168 15.8949C6.52378 15.966 6.68969 16.0028 6.8576 16.0025C7.12465 16.003 7.38345 15.91 7.58908 15.7396C7.70481 15.6437 7.80048 15.5258 7.8706 15.3929C7.94072 15.2599 7.98392 15.1144 7.99772 14.9647C8.01152 14.815 7.99565 14.664 7.95103 14.5205C7.9064 14.3769 7.8339 14.2436 7.73766 14.1281L3.58881 9.1449H17.144C17.4471 9.1449 17.7378 9.02448 17.9522 8.81014C18.1665 8.5958 18.2869 8.30509 18.2869 8.00197C18.2869 7.69884 18.1665 7.40813 17.9522 7.19379C17.7378 6.97945 17.4471 6.85903 17.144 6.85903Z" fill="#343434"/>
</svg>
