<svg width="428" height="393" viewBox="0 0 428 393" fill="none" xmlns="http://www.w3.org/2000/svg">
<path opacity="0.8" d="M428 0H0V363.178C311 396 87 284 428 363.178V0Z" fill="#E682FF"/>
<path opacity="0.8" d="M428 0H0V363.192C331 295 212 455.5 428 363.192V0Z" fill="#ECA2FF"/>
<path opacity="0.5" d="M428 0H0V354.523C280.5 282.939 223.5 380.337 428 354.523V0Z" fill="#F3C6FF"/>
<path d="M379.517 187.213C379.517 195.059 374.316 201.219 364.508 201.219C354.701 201.219 344 195.059 344 187.213C344 179.367 356.965 172.171 366.773 172.171C376.581 172.171 379.517 179.367 379.517 187.213Z" fill="#F9E0FF"/>
<path d="M396.474 182.207C396.474 190.053 388.523 196.414 378.715 196.414C368.907 196.414 357.405 190.053 357.405 182.207C357.405 174.361 368.907 168 378.715 168C388.523 168 396.474 174.361 396.474 182.207Z" fill="#F9E0FF"/>
<path d="M391.042 196.414C391.042 204.26 383.091 210.62 373.283 210.62C363.475 210.62 354.062 200.081 354.062 192.235C354.062 184.389 363.475 182.207 373.283 182.207C383.091 182.207 391.042 188.567 391.042 196.414Z" fill="#F9E0FF"/>
<path d="M361.374 186.184C361.374 178.338 366.576 172.179 376.383 172.179C386.191 172.179 396.892 178.338 396.892 186.184C396.892 194.03 383.927 201.227 374.119 201.227C364.311 201.227 361.374 194.03 361.374 186.184Z" fill="#F9E0FF"/>
<path d="M381.431 188.9C381.431 181.054 389.382 174.693 399.19 174.693C408.998 174.693 420.5 181.054 420.5 188.9C420.5 196.746 408.998 203.107 399.19 203.107C389.382 203.107 381.431 196.746 381.431 188.9Z" fill="#F9E0FF"/>
<path d="M371.436 196.422C371.436 188.575 379.387 182.215 389.195 182.215C399.003 182.215 408.416 192.754 408.416 200.6C408.416 208.446 399.003 210.628 389.195 210.628C379.387 210.628 371.436 204.268 371.436 196.422Z" fill="#F9E0FF"/>
<g opacity="0.6">
<path d="M35.5171 125.213C35.5171 133.059 30.3161 139.219 20.5083 139.219C10.7005 139.219 0 133.059 0 125.213C0 117.367 12.965 110.171 22.7727 110.171C32.5805 110.171 35.5171 117.367 35.5171 125.213Z" fill="#F9E0FF"/>
<path d="M52.4737 120.207C52.4737 128.053 44.523 134.414 34.7152 134.414C24.9074 134.414 13.4049 128.053 13.4049 120.207C13.4049 112.361 24.9074 106 34.7152 106C44.523 106 52.4737 112.361 52.4737 120.207Z" fill="#F9E0FF"/>
<path d="M47.0417 134.414C47.0417 142.26 71.5 152 21.5 146.5C4.5 146.5 4.5 131.846 4.5 124C4.5 116.154 19.4753 120.207 29.2831 120.207C39.0909 120.207 47.0417 126.568 47.0417 134.414Z" fill="#F9E0FF"/>
<path d="M17.3745 124.184C17.3745 116.338 22.5755 110.179 32.3833 110.179C42.1911 110.179 52.8916 116.338 52.8916 124.184C52.8916 132.03 39.9266 139.227 30.1189 139.227C20.3111 139.227 17.3745 132.03 17.3745 124.184Z" fill="#F9E0FF"/>
<path d="M37.4312 126.9C37.4312 119.054 45.3819 112.693 55.1897 112.693C64.9975 112.693 76.5 119.054 76.5 126.9C76.5 134.746 64.9975 141.107 55.1897 141.107C45.3819 141.107 37.4312 134.746 37.4312 126.9Z" fill="#F9E0FF"/>
<path d="M29.2414 134.538C29.2414 126.692 37.1922 120.331 47 120.331C56.8078 120.331 72 122.154 72 130C72 137.846 56.8078 148.745 47 148.745C37.1922 148.745 29.2414 142.384 29.2414 134.538Z" fill="#F9E0FF"/>
</g>
</svg>
