<svg width="48" height="48" viewBox="0 0 48 48" fill="none" xmlns="http://www.w3.org/2000/svg">
<path d="M38.6681 27.3199L38.8041 26.4867C38.9366 25.6746 39.0048 24.846 39.0048 24.0235C39.0048 23.2005 38.9365 22.3676 38.8043 21.5616L38.6675 20.7277L39.3099 20.1786L42.3747 17.559L42.3751 17.5583L42.3754 17.5584L42.3751 17.5583L42.3751 17.5575L42.3718 17.5483L42.3686 17.5392L42.3289 17.4246C41.5466 15.2395 40.3753 13.2139 38.8717 11.4458C38.8712 11.4451 38.8706 11.4445 38.8701 11.4438L38.7894 11.3497L38.7856 11.3453C38.7849 11.3445 38.7839 11.3438 38.7828 11.3435C38.7821 11.3434 38.7814 11.3433 38.7807 11.3434C38.7804 11.3434 38.7801 11.3435 38.7799 11.3435C38.7797 11.3436 38.7796 11.3436 38.7795 11.3437L34.9797 12.6961L34.1811 12.9803L33.5256 12.4428C32.2435 11.3915 30.8214 10.5664 29.2838 9.99305L28.4875 9.69608L28.333 8.86036L27.5971 4.88107C27.5971 4.88106 27.5971 4.88106 27.5971 4.88105C27.597 4.88059 27.5968 4.88017 27.5965 4.87984C27.5961 4.8795 27.5957 4.87927 27.5952 4.87919L27.5895 4.87816L27.4693 4.85586C27.4682 4.85568 27.4672 4.85549 27.4662 4.8553C25.2071 4.44732 22.8214 4.44732 20.5622 4.8553C20.5612 4.85549 20.5602 4.85568 20.5592 4.85586L20.4389 4.87815L20.4332 4.8792C20.4329 4.87924 20.4327 4.87934 20.4324 4.87949C20.4322 4.87959 20.4321 4.8797 20.432 4.87984C20.4318 4.88 20.4317 4.88018 20.4316 4.88038C20.4314 4.88059 20.4314 4.88082 20.4313 4.88107L20.4313 4.88111L19.6907 8.87954L19.537 9.70934L18.748 10.0088C17.2194 10.5889 15.7953 11.4139 14.5318 12.4515L13.8762 12.9898L13.0771 12.7055L9.24529 11.3424L9.23905 11.3497L9.23903 11.3497L9.15723 11.4452C7.65604 13.2158 6.48477 15.2414 5.6991 17.4257L5.65981 17.5392L5.65679 17.5479L5.65373 17.5564C5.65376 17.5566 5.65381 17.5568 5.65389 17.5571C5.65399 17.5575 5.65412 17.5579 5.65427 17.5583C5.65445 17.5587 5.65467 17.5591 5.65488 17.5595C5.65508 17.5598 5.6555 17.5605 5.65668 17.5615C5.65685 17.5617 5.65703 17.5619 5.65723 17.562L8.75517 20.206L9.39916 20.7556L9.26141 21.591C9.12999 22.388 9.06577 23.2063 9.06577 24.0188C9.06577 24.8417 9.13013 25.659 9.26099 26.4441L9.40021 27.2795L8.75687 27.8302L5.66312 30.4787M38.6681 27.3199L5.66312 30.4787M38.6681 27.3199L39.3099 27.8685L42.3712 30.485C42.3714 30.4852 42.3716 30.4854 42.3717 30.4855C42.374 30.4876 42.3751 30.4891 42.3758 30.4901C42.3766 30.4915 42.3773 30.4931 42.3778 30.4947C42.3782 30.4964 42.3782 30.4975 42.3782 30.4978L42.378 30.4985L42.3389 30.6115C41.5515 32.7966 40.392 34.8067 38.8798 36.5934C38.879 36.5944 38.8781 36.5954 38.8773 36.5964L38.7988 36.688L38.7987 36.6879L38.7925 36.6953L34.989 35.3416L34.1904 35.0574L33.535 35.5949C32.2547 36.6447 30.832 37.4665 29.2898 38.0459L28.4964 38.344L28.3423 39.1773L27.6065 43.1566C27.6064 43.1569 27.6064 43.1571 27.6062 43.1573C27.6061 43.1575 27.606 43.1577 27.6058 43.1579L28.6644 44.2206L27.6058 43.1579C27.6057 43.158 27.6055 43.1581 27.6054 43.1582C27.6051 43.1584 27.6049 43.1585 27.6046 43.1585L27.5989 43.1595L27.4798 43.1816C27.4787 43.1818 27.4775 43.182 27.4764 43.1822C25.1928 43.5928 22.8542 43.5928 20.5706 43.1822C20.5695 43.182 20.5685 43.1818 20.5674 43.1816L20.4483 43.1595L20.4426 43.1585C20.4421 43.1584 20.4417 43.1582 20.4413 43.1579L19.4193 44.1838L20.4413 43.1579C20.441 43.1575 20.4408 43.1571 20.4407 43.1566L20.4407 43.1566L19.7001 39.1581L19.5454 38.323L18.7497 38.0261C17.2286 37.4583 15.816 36.6343 14.5418 35.5867L13.8862 35.0477L13.0865 35.3322L9.25832 36.694C9.25819 36.6941 9.25807 36.6941 9.25794 36.6941C9.25697 36.6944 9.25594 36.6944 9.25498 36.6942C9.25387 36.6939 9.2529 36.6932 9.25217 36.6924L9.24839 36.688L9.16757 36.5937C9.16702 36.593 9.16647 36.5924 9.16592 36.5917C7.65659 34.8174 6.49663 32.7992 5.70833 30.6116M38.6681 27.3199L5.70833 30.6116M5.66312 30.4787L5.66268 30.4794L5.66272 30.4802L5.66601 30.4893L5.66919 30.4985L5.70833 30.6116M5.66312 30.4787L5.70833 30.6116M24.0236 19.8095L24.0282 19.8095C24.5185 19.808 25.0043 19.9039 25.4572 20.0917C25.9102 20.2796 26.3213 20.5555 26.6667 20.9036L26.6682 20.9051C27.381 21.6213 27.7689 22.5547 27.7689 23.5548C27.7689 24.5537 27.3819 25.4861 26.6707 26.2019C25.9549 26.9131 25.0225 27.3001 24.0236 27.3001C23.0246 27.3001 22.0921 26.9131 21.3763 26.2018C20.6652 25.486 20.2783 24.5536 20.2783 23.5548C20.2783 22.5553 20.6657 21.6223 21.3777 20.9063C22.0905 20.1943 23.0211 19.8095 24.0236 19.8095ZM14.283 23.5548C14.283 28.9348 18.6436 33.2954 24.0236 33.2954C29.4036 33.2954 33.7642 28.9348 33.7642 23.5548C33.7642 18.1748 29.4036 13.8142 24.0236 13.8142C18.6436 13.8142 14.283 18.1748 14.283 23.5548Z" stroke="#343434" stroke-width="3"/>
</svg>
