<svg width="19" height="19" viewBox="0 0 19 19" fill="none" xmlns="http://www.w3.org/2000/svg">
<path d="M0.552421 6.96602C0.95203 5.73122 1.60864 4.59506 2.47903 3.63234C2.551 3.5528 2.64499 3.49645 2.74905 3.47043C2.85312 3.44441 2.96257 3.44991 3.0635 3.48622L5.13947 4.22872C5.28726 4.2815 5.44476 4.3015 5.60105 4.28735C5.75734 4.2732 5.90868 4.22524 6.04459 4.14678C6.1805 4.06833 6.29772 3.96126 6.38813 3.83299C6.47854 3.70473 6.53998 3.55833 6.56819 3.40396L6.96434 1.23274C6.98347 1.12705 7.03362 1.02944 7.10841 0.95234C7.18319 0.875241 7.27923 0.82214 7.38429 0.799797C8.65267 0.529625 9.96372 0.529625 11.2321 0.799797C11.337 0.822331 11.4328 0.875516 11.5073 0.9526C11.5819 1.02968 11.6319 1.12719 11.651 1.23274L12.0482 3.40396C12.0764 3.55833 12.1378 3.70473 12.2283 3.83299C12.3187 3.96126 12.4359 4.06833 12.5718 4.14678C12.7077 4.22524 12.8591 4.2732 13.0153 4.28735C13.1716 4.3015 13.3291 4.2815 13.4769 4.22872L15.5529 3.48622C15.6539 3.45004 15.7634 3.44471 15.8675 3.47092C15.9716 3.49714 16.0655 3.5537 16.1374 3.63342C17.0076 4.59583 17.6642 5.73161 18.064 6.96602C18.097 7.06798 18.0989 7.17745 18.0696 7.28054C18.0404 7.38362 17.9811 7.4757 17.8994 7.54508L16.2164 8.9738C16.0968 9.07541 16.0008 9.2018 15.9349 9.34421C15.869 9.48662 15.8349 9.64165 15.8349 9.79856C15.8349 9.95547 15.869 10.1105 15.9349 10.2529C16.0008 10.3953 16.0968 10.5217 16.2164 10.6233L17.8994 12.052C17.9811 12.1214 18.0404 12.2135 18.0696 12.3166C18.0989 12.4197 18.097 12.5291 18.064 12.6311C17.6644 13.8659 17.0077 15.0021 16.1374 15.9648C16.0654 16.0443 15.9714 16.1007 15.8673 16.1267C15.7633 16.1527 15.6538 16.1472 15.5529 16.1109L13.4769 15.3684C13.3291 15.3156 13.1716 15.2956 13.0153 15.3098C12.8591 15.3239 12.7077 15.3719 12.5718 15.4503C12.4359 15.5288 12.3187 15.6359 12.2283 15.7641C12.1378 15.8924 12.0764 16.0388 12.0482 16.1932L11.651 18.3655C11.6317 18.4708 11.5816 18.5681 11.5071 18.645C11.4325 18.7218 11.3368 18.7749 11.2321 18.7973C9.96373 19.0676 8.65266 19.0676 7.38429 18.7973C7.27923 18.775 7.18319 18.7219 7.10841 18.6448C7.03362 18.5677 6.98347 18.4701 6.96434 18.3644L6.56927 16.1932C6.54107 16.0388 6.47963 15.8924 6.38921 15.7641C6.2988 15.6359 6.18158 15.5288 6.04567 15.4503C5.90976 15.3719 5.75842 15.3239 5.60213 15.3098C5.44584 15.2956 5.28834 15.3156 5.14056 15.3684L3.0635 16.1109C2.96246 16.1471 2.85295 16.1524 2.74888 16.1262C2.6448 16.1 2.55087 16.0434 2.47903 15.9637C1.60874 15.0013 0.952139 13.8655 0.552421 12.6311C0.519551 12.529 0.517743 12.4195 0.547226 12.3164C0.57671 12.2133 0.636157 12.1213 0.718023 12.052L2.40001 10.6233C2.51958 10.5217 2.61562 10.3953 2.68148 10.2529C2.74735 10.1105 2.78146 9.95547 2.78146 9.79856C2.78146 9.64165 2.74735 9.48662 2.68148 9.34421C2.61562 9.2018 2.51958 9.07541 2.40001 8.9738L0.718023 7.54508C0.636157 7.47583 0.57671 7.38381 0.547226 7.28071C0.517743 7.17762 0.519551 7.06809 0.552421 6.96602ZM1.70081 6.95952L3.10138 8.14796C3.34088 8.35117 3.53329 8.60407 3.66525 8.8891C3.79721 9.17413 3.86556 9.48447 3.86556 9.79856C3.86556 10.1127 3.79721 10.423 3.66525 10.708C3.53329 10.993 3.34088 11.2459 3.10138 11.4492L1.69973 12.6376C2.01601 13.4837 2.47146 14.2709 3.04727 14.9668L4.77472 14.3499C5.07037 14.2444 5.38544 14.2044 5.69808 14.2327C6.01073 14.2611 6.31346 14.3571 6.58529 14.5141C6.85712 14.6712 7.09155 14.8854 7.27232 15.1421C7.45309 15.3988 7.57587 15.6917 7.63215 16.0005L7.96227 17.8059C8.85269 17.9543 9.76153 17.9543 10.6519 17.8059L10.9821 15.9983C11.0381 15.6894 11.1608 15.3964 11.3416 15.1397C11.5223 14.8829 11.7568 14.6686 12.0287 14.5117C12.3006 14.3547 12.6034 14.2588 12.9161 14.2307C13.2289 14.2026 13.5439 14.2429 13.8395 14.3488L15.568 14.9668C16.1438 14.2709 16.5993 13.4836 16.9156 12.6376L15.515 11.4492C15.2752 11.2462 15.0825 10.9933 14.9503 10.7083C14.8181 10.4232 14.7496 10.1128 14.7496 9.79856C14.7496 9.48435 14.8181 9.17391 14.9503 8.88885C15.0825 8.6038 15.2752 8.35097 15.515 8.14796L16.9156 6.95952C16.5993 6.11347 16.1438 5.32621 15.568 4.63028L13.8406 5.24723C13.545 5.35277 13.23 5.39278 12.9174 5.36449C12.6049 5.33619 12.3022 5.24026 12.0304 5.08335C11.7585 4.92643 11.5241 4.71229 11.3433 4.45576C11.1624 4.19923 11.0396 3.90645 10.9831 3.5977L10.6519 1.79124C9.76154 1.64278 8.85269 1.64278 7.96227 1.79124L7.63324 3.5977C7.57698 3.90667 7.45418 4.1997 7.27334 4.45646C7.0925 4.71322 6.85796 4.92755 6.586 5.0846C6.31404 5.24164 6.01116 5.33762 5.69839 5.36589C5.38561 5.39416 5.07043 5.35404 4.77472 5.24831L3.04727 4.63028C2.47148 5.32621 2.01603 6.11347 1.69973 6.95952H1.70081ZM6.60283 9.79856C6.60283 9.08091 6.88791 8.39265 7.39537 7.8852C7.90283 7.37774 8.59108 7.09265 9.30873 7.09265C10.0264 7.09265 10.7146 7.37774 11.2221 7.8852C11.7296 8.39265 12.0146 9.08091 12.0146 9.79856C12.0146 10.5162 11.7296 11.2045 11.2221 11.7119C10.7146 12.2194 10.0264 12.5045 9.30873 12.5045C8.59108 12.5045 7.90283 12.2194 7.39537 11.7119C6.88791 11.2045 6.60283 10.5162 6.60283 9.79856ZM7.68519 9.79856C7.68519 10.2292 7.85624 10.6421 8.16072 10.9466C8.46519 11.2511 8.87814 11.4221 9.30873 11.4221C9.73933 11.4221 10.1523 11.2511 10.4568 10.9466C10.7612 10.6421 10.9323 10.2292 10.9323 9.79856C10.9323 9.36797 10.7612 8.95502 10.4568 8.65054C10.1523 8.34607 9.73933 8.17502 9.30873 8.17502C8.87814 8.17502 8.46519 8.34607 8.16072 8.65054C7.85624 8.95502 7.68519 9.36797 7.68519 9.79856Z" fill="black"/>
</svg>
