<svg width="48" height="48" viewBox="0 0 48 48" fill="none" xmlns="http://www.w3.org/2000/svg">
<g clip-path="url(#clip0_251_3349)">
<path d="M31.7953 30.7219C32.9297 30.1125 34.2281 29.7656 35.6109 29.7656H35.6156C35.7562 29.7656 35.8219 29.5969 35.7187 29.5031C34.2807 28.2126 32.638 27.1702 30.8578 26.4187C30.8391 26.4094 30.8203 26.4047 30.8016 26.3953C33.7125 24.2812 35.6062 20.8453 35.6062 16.9688C35.6062 10.5469 30.4125 5.34375 24.0047 5.34375C17.5969 5.34375 12.4078 10.5469 12.4078 16.9688C12.4078 20.8453 14.3016 24.2812 17.2172 26.3953C17.1984 26.4047 17.1797 26.4094 17.1609 26.4187C15.0656 27.3047 13.1859 28.575 11.5687 30.1969C9.9609 31.8018 8.68084 33.7044 7.79999 35.7984C6.93334 37.849 6.46561 40.0461 6.42187 42.2719C6.42062 42.3219 6.42939 42.3717 6.44768 42.4183C6.46596 42.4648 6.49339 42.5073 6.52833 42.5431C6.56328 42.5789 6.60505 42.6074 6.65116 42.6268C6.69728 42.6463 6.74683 42.6563 6.79687 42.6562H9.60468C9.80624 42.6562 9.97499 42.4922 9.97968 42.2906C10.0734 38.6719 11.5219 35.2828 14.0859 32.7141C16.7344 30.0563 20.2594 28.5938 24.0094 28.5938C26.6672 28.5938 29.2172 29.3297 31.4156 30.7078C31.4721 30.7433 31.5369 30.7633 31.6036 30.7658C31.6702 30.7682 31.7364 30.7531 31.7953 30.7219ZM24.0094 25.0312C21.8625 25.0312 19.8422 24.1922 18.3187 22.6688C17.5692 21.9211 16.975 21.0326 16.5703 20.0543C16.1656 19.0761 15.9585 18.0274 15.9609 16.9688C15.9609 14.8172 16.8 12.7922 18.3187 11.2687C19.8375 9.74531 21.8578 8.90625 24.0094 8.90625C26.1609 8.90625 28.1766 9.74531 29.7 11.2687C30.4495 12.0164 31.0438 12.9049 31.4484 13.8832C31.8531 14.8614 32.0602 15.9101 32.0578 16.9688C32.0578 19.1203 31.2187 21.1453 29.7 22.6688C28.1766 24.1922 26.1562 25.0312 24.0094 25.0312ZM41.25 36.1875H30C29.7937 36.1875 29.625 36.3563 29.625 36.5625V39.1875C29.625 39.3937 29.7937 39.5625 30 39.5625H41.25C41.4562 39.5625 41.625 39.3937 41.625 39.1875V36.5625C41.625 36.3563 41.4562 36.1875 41.25 36.1875Z" fill="#343434"/>
</g>
<defs>
<clipPath id="clip0_251_3349">
<rect width="48" height="48" fill="white"/>
</clipPath>
</defs>
</svg>
