<svg width="28" height="28" viewBox="0 0 28 28" fill="none" xmlns="http://www.w3.org/2000/svg">
<path d="M7.79675 10.3645H11.2641V15.5268H7.79675V10.3645Z" fill="#B3B3B3"/>
<path d="M15.5862 0.273438H3.47476C3.15691 0.273438 2.875 0.505531 2.875 0.823375V6.69178C2.875 6.80788 2.92236 6.92136 2.98798 7.01712L6.30062 11.8387C6.40787 11.9953 6.59162 12.0859 6.78127 12.0859H7.1468L9.59062 11.6178L11.9141 12.0859H12.2796C12.4692 12.0859 12.6469 11.9953 12.7541 11.8387L16.062 7.0157C16.1278 6.91994 16.1641 6.80788 16.1641 6.69178V0.823375C16.1641 0.505531 15.9038 0.273438 15.5862 0.273438Z" fill="#FF473E"/>
<path d="M7.14062 0.273438H11.8984V12.0859H7.14062V0.273438Z" fill="#B3B3B3"/>
<path d="M9.53045 27.6007C13.5028 27.6007 16.723 24.3805 16.723 20.4081C16.723 16.4358 13.5028 13.2156 9.53045 13.2156C5.55811 13.2156 2.33789 16.4358 2.33789 20.4081C2.33789 24.3805 5.55811 27.6007 9.53045 27.6007Z" fill="#B3B3B3"/>
<path d="M1.10484 16.415C2.45819 16.7577 3.5235 17.823 3.86634 19.1763C3.89932 19.3065 4.06682 19.3065 4.0998 19.1763C4.44264 17.823 5.50795 16.7577 6.8613 16.415C6.99146 16.382 6.99146 16.2145 6.8613 16.1815C5.50795 15.8387 4.44264 14.7732 4.0998 13.4199C4.06682 13.2897 3.89932 13.2897 3.86634 13.4199C3.5235 14.7732 2.45819 15.8387 1.10484 16.1815C0.974629 16.2145 0.974684 16.382 1.10484 16.415Z" fill="#A4ECF4"/>
</svg>
