<svg width="20" height="20" viewBox="0 0 20 20" fill="none" xmlns="http://www.w3.org/2000/svg">
<path d="M7.7661 19C7.3251 17.5622 6.66 16.4899 5.77035 15.7838C4.4361 14.725 2.31615 15.3833 1.53315 14.2907C0.750146 13.1981 2.0817 11.1894 2.5488 10.0041C3.01635 8.81875 0.757796 8.3998 1.0215 8.0632C1.197 7.83865 2.33865 7.19155 4.44555 6.121C5.04405 2.7073 7.2549 1 11.079 1C16.8147 1 18.9999 5.8627 18.9999 8.956C18.9999 12.0484 16.3539 15.3802 12.5847 16.0989C12.2476 16.5894 12.7336 17.5568 14.0427 19" stroke="black" stroke-width="0.9" stroke-linecap="round" stroke-linejoin="round"/>
<path d="M7.97489 5.72514C7.68059 6.86544 7.76789 7.66644 8.23724 8.12769C8.70614 8.58849 9.50534 8.89044 10.6348 9.03219C10.3783 10.5032 10.6911 11.1931 11.5722 11.1022C12.4533 11.0117 12.9829 10.6454 13.1607 10.0042C14.5377 10.3912 15.2842 10.0672 15.3999 9.03219C15.5731 7.47969 14.7361 6.24174 14.3928 6.24174C14.0499 6.24174 13.1607 6.19989 13.1607 5.72514C13.1607 5.25039 12.1221 4.98264 11.1847 4.98264C10.2474 4.98264 10.8112 4.35039 9.52424 4.60014C8.66609 4.76664 8.14949 5.14149 7.97489 5.72514Z" fill="#E64DFF" fill-opacity="0.5" stroke="black" stroke-width="0.9" stroke-linejoin="round"/>
<path d="M12.925 10.675C12.4673 10.959 11.8396 11.431 11.575 11.8C10.9139 12.7225 10.378 13.2841 10.261 13.8736" stroke="black" stroke-width="0.9" stroke-linecap="round"/>
</svg>
