<svg width="18" height="18" viewBox="0 0 18 18" fill="none" xmlns="http://www.w3.org/2000/svg">
<path d="M3.33259 10.0035L3.70649 10.2745L3.4871 10.5762L3.40048 10.6953L3.39227 10.8424L3.3721 11.2038L3.2826 12.8075C3.28257 12.808 3.28254 12.8085 3.28251 12.809L3.70652 10.2744L3.33259 10.0035ZM3.33259 10.0035C3.08351 10.3473 2.93911 10.7558 2.91679 11.1798L2.65039 16.2414M3.33259 10.0035L5.36929 7.19282L2.65039 16.2414M2.65039 16.2414C2.64585 16.3254 2.66239 16.4091 2.6985 16.4851C2.7346 16.561 2.78914 16.6267 2.85712 16.6762C2.92511 16.7256 3.0044 16.7573 3.08776 16.7683C3.17112 16.7793 3.2559 16.7693 3.33439 16.7391L2.65039 16.2414ZM3.33166 12.8105L3.4161 11.2061C3.42253 11.0841 3.44204 10.9637 3.47394 10.8469C3.49477 10.7707 3.52088 10.696 3.55207 10.6234C3.60141 10.5086 3.66346 10.3991 3.73747 10.2969C3.73748 10.2969 3.73749 10.2969 3.7375 10.2969L3.33166 12.8105ZM3.33166 12.8105L3.78169 12.8376M3.33166 12.8105L3.33156 12.8125L3.78169 12.8376M3.78169 12.8376L3.89149 10.8702L5.07409 13.6458C4.71348 13.3788 4.31644 13.1648 3.89509 13.0104C3.86009 12.9977 3.83015 12.974 3.80971 12.9428C3.78928 12.9117 3.77945 12.8748 3.78169 12.8376ZM12.9266 2.79914L12.9268 2.79929C14.5064 3.94812 14.7944 4.9812 14.8485 5.31957L14.8484 5.31958L14.8491 5.32355C14.8492 5.32407 14.8492 5.32461 14.8491 5.32513C14.849 5.32537 14.8489 5.32561 14.8488 5.32583C14.8487 5.32609 14.8486 5.32634 14.8484 5.32656L14.8473 5.32802L10.3149 11.5821L10.3149 11.5822L9.08868 13.2745L9.06635 13.1499L8.57419 13.2381C9.06635 13.1499 9.0663 13.1497 9.06626 13.1494L9.06615 13.1488L9.06593 13.1476L9.06542 13.1448L9.06413 13.1381L9.06035 13.1199C9.05728 13.1057 9.05303 13.0873 9.04735 13.0651C9.03599 13.0206 9.01887 12.9606 8.9938 12.8876C8.94366 12.7415 8.86175 12.5429 8.73072 12.3111C8.46772 11.8457 8.01091 11.2534 7.22953 10.6847L7.22945 10.6846C6.44719 10.1155 5.74293 9.86297 5.21908 9.75606C4.95811 9.7028 4.74397 9.68607 4.5895 9.68344C4.51228 9.68213 4.44997 9.68433 4.40413 9.68725C4.38122 9.68871 4.36241 9.69035 4.3479 9.69183L4.3294 9.69386L4.32261 9.69471L4.31983 9.69507L4.3186 9.69523L4.31803 9.69531C4.31775 9.69535 4.31748 9.69539 4.38559 10.1907L4.31748 9.69539L4.1574 9.7174L5.77413 7.48626L5.77417 7.48621L9.93213 1.74966L9.93221 1.74972L9.93393 1.74724C10.274 1.69487 11.3463 1.64858 12.9266 2.79914ZM5.9966 15.1156C6.03753 15.127 6.07923 15.1346 6.12113 15.1381L3.1558 16.2721L3.1551 16.2724C3.15448 16.2726 3.1538 16.2727 3.15313 16.2726C3.15247 16.2725 3.15184 16.2723 3.15131 16.2719C3.15076 16.2715 3.15033 16.271 3.15005 16.2704C3.14976 16.2698 3.14963 16.2691 3.14966 16.2684L3.1497 16.2677L3.31814 13.0674C3.33623 13.1199 3.36086 13.1702 3.39169 13.2172C3.47105 13.3381 3.58726 13.4302 3.72308 13.4799C4.09956 13.6178 4.45432 13.809 4.77653 14.0476L4.77648 14.0477L4.78405 14.0531C5.10973 14.285 5.40001 14.563 5.6458 14.8784C5.73403 14.9932 5.85709 15.0764 5.9966 15.1156Z" stroke="black"/>
</svg>
