<svg width="18" height="18" viewBox="0 0 18 18" fill="none" xmlns="http://www.w3.org/2000/svg">
<g clip-path="url(#clip0_763_9578)">
<path d="M15.4285 9C15.4276 7.99054 15.1894 6.99544 14.7329 6.09507C14.2764 5.19471 13.6146 4.41433 12.8008 3.81697L12.3026 1.05269C12.248 0.756214 12.0909 0.488366 11.8588 0.29595C11.6268 0.103534 11.3345 -0.00121377 11.033 1.06133e-05H6.96693C6.66546 -0.00121377 6.37315 0.103534 6.14108 0.29595C5.90901 0.488366 5.75192 0.756214 5.69729 1.05269L5.19907 3.81697C4.38525 4.4141 3.72347 5.19449 3.26733 6.09494C2.81118 6.99539 2.57349 7.9906 2.57349 9C2.57349 10.0094 2.81118 11.0046 3.26733 11.9051C3.72347 12.8055 4.38525 13.5859 5.19907 14.183L5.69729 16.9473C5.75192 17.2438 5.90901 17.5116 6.14108 17.7041C6.37315 17.8965 6.66546 18.0012 6.96693 18H11.033C11.3345 18.0012 11.6268 17.8965 11.8588 17.7041C12.0909 17.5116 12.248 17.2438 12.3026 16.9473L12.8008 14.183C13.6146 13.5857 14.2764 12.8053 14.7329 11.9049C15.1894 11.0046 15.4276 10.0095 15.4285 9ZM6.96693 1.28572H11.033L11.3464 3.02144C9.83968 2.4212 8.16024 2.4212 6.65354 3.02144L6.96693 1.28572ZM3.85711 9C3.85711 7.98284 4.15873 6.98852 4.72384 6.14278C5.28894 5.29705 6.09214 4.63788 7.03188 4.24863C7.97161 3.85938 9.00567 3.75753 10.0033 3.95597C11.0009 4.15441 11.9173 4.64421 12.6365 5.36345C13.3557 6.0827 13.8456 6.99906 14.044 7.99668C14.2424 8.9943 14.1406 10.0284 13.7513 10.9681C13.3621 11.9078 12.7029 12.711 11.8572 13.2761C11.0114 13.8412 10.0171 14.1429 8.99996 14.1429C7.63664 14.1407 6.32977 13.5982 5.36576 12.6342C4.40175 11.6702 3.85924 10.3633 3.85711 9ZM11.033 16.7143H6.96693L6.65354 14.9786C8.16024 15.5788 9.83968 15.5788 11.3464 14.9786L11.033 16.7143ZM8.3571 9V5.78572C8.3571 5.61522 8.42483 5.45171 8.54539 5.33115C8.66595 5.21059 8.82946 5.14286 8.99996 5.14286C9.17046 5.14286 9.33397 5.21059 9.45453 5.33115C9.57509 5.45171 9.64282 5.61522 9.64282 5.78572C9.64282 5.95621 9.64282 8.35714 9.64282 8.35714H12.2142C12.3847 8.35714 12.5483 8.42487 12.6688 8.54543C12.7894 8.66599 12.8571 8.8295 12.8571 9C12.8571 9.1705 12.7894 9.33401 12.6688 9.45457C12.5483 9.57513 12.3847 9.64286 12.2142 9.64286H8.99996C8.82946 9.64286 8.66595 9.57513 8.54539 9.45457C8.42483 9.33401 8.3571 9.1705 8.3571 9Z" fill="black"/>
</g>
<defs>
<clipPath id="clip0_763_9578">
<rect width="18" height="18" fill="white"/>
</clipPath>
</defs>
</svg>
